HIERARCHY
ROOT hip
{
	OFFSET 0.000000 0.000000 0.000000 
	CHANNELS 6 Xposition Yposition Zposition Xrotation Zrotation Yrotation
	JOINT abdomen
	{
		OFFSET 0.000000 3.402643 0.000000 
		CHANNELS 3 Xrotation Zrotation Yrotation
		JOINT chest
		{
			OFFSET 0.000000 8.438565 -0.680529 
			CHANNELS 3 Xrotation Zrotation Yrotation
			JOINT neck
			{
				OFFSET 0.000000 10.207942 -0.272212 
				CHANNELS 3 Xrotation Zrotation Yrotation
				JOINT head
				{
					OFFSET 0.000000 3.130431 0.000000 
					CHANNELS 3 Xrotation Zrotation Yrotation
					End Site
					{
						OFFSET 0.000000 3.130435 0.000000 
					}
				}
			}
			JOINT lCollar
			{
				OFFSET 3.470700 6.669187 -0.816635 
				CHANNELS 3 Yrotation Zrotation Xrotation
				JOINT lShldr
				{
					OFFSET 3.198488 0.000000 0.000000 
					CHANNELS 3 Zrotation Yrotation Xrotation
					JOINT lForeArm
					{
						OFFSET 10.139888 0.000000 0.000000 
						CHANNELS 3 Yrotation Zrotation Xrotation
						JOINT lHand
						{
							OFFSET 8.370511 0.000000 0.000000 
							CHANNELS 3 Zrotation Yrotation Xrotation
							End Site
							{
								OFFSET 4.083176 0.000000 0.000000 
							}
						}
					}
				}
			}
			JOINT rCollar
			{
				OFFSET -3.470700 6.669187 -0.816635 
				CHANNELS 3 Yrotation Zrotation Xrotation
				JOINT rShldr
				{
					OFFSET -3.198488 0.000000 0.000000 
					CHANNELS 3 Zrotation Yrotation Xrotation
					JOINT rForeArm
					{
						OFFSET -10.139888 0.000000 0.000000 
						CHANNELS 3 Yrotation Zrotation Xrotation
						JOINT rHand
						{
							OFFSET -8.370511 0.000000 0.000000 
							CHANNELS 3 Zrotation Yrotation Xrotation
							End Site
							{
								OFFSET -4.083176 0.000000 0.000000 
							}
						}
					}
				}
			}
		}
	}
	JOINT lThigh
	{
		OFFSET 5.308129 -1.633274 1.361059 
		CHANNELS 3 Xrotation Zrotation Yrotation
		JOINT lShin
		{
			OFFSET -2.041588 -20.007561 0.000000 
			CHANNELS 3 Xrotation Zrotation Yrotation
			JOINT lFoot
			{
				OFFSET 0.000000 -19.190928 -1.224953 
				CHANNELS 3 Xrotation Yrotation Zrotation
				End Site
				{
					OFFSET 0.000000 -2.449906 4.627600 
				}
			}
		}
	}
	JOINT rThigh
	{
		OFFSET -5.308129 -1.633274 1.361059 
		CHANNELS 3 Xrotation Zrotation Yrotation
		JOINT rShin
		{
			OFFSET 2.041588 -20.007561 0.000000 
			CHANNELS 3 Xrotation Zrotation Yrotation
			JOINT rFoot
			{
				OFFSET 0.000000 -19.190928 -1.224953 
				CHANNELS 3 Xrotation Yrotation Zrotation
				End Site
				{
					OFFSET 0.000000 -2.449906 4.627600 
				}
			}
		}
	}
}
MOTION
Frames: 20
Frame Time: 0.033333
1.872485 31.410574 1.872485 0.000000 0.000000 0.000000 28.802320 4.800390 -17.145491 -3.415535 -2.855418 7.594893 12.643072 7.471062 -4.144786 10.524219 0.508720 -0.030344 -8.123325 8.687988 -11.242103 -35.725624 -36.352211 -8.750084 -69.041412 -3.031585 1.523299 35.067532 6.354663 -55.995876 -2.520535 6.190593 -11.971966 92.571983 60.655857 14.111273 48.129501 2.673721 1.992373 64.805214 44.167316 104.181793 -59.688866 10.046160 9.684260 74.979416 1.907269 -4.658831 -14.901648 4.969117 2.678385 -34.967575 -21.518721 -25.084496 99.104340 -3.642068 4.365063 -49.089874 -7.253707 1.063829 
2.932974 30.283411 2.932974 0.000000 0.000000 0.000000 32.519497 3.260552 -18.074907 -1.766367 -5.770512 7.598241 7.022719 15.947901 -6.207098 10.524219 0.508720 -0.030344 -8.793323 22.796335 -19.094511 -26.549026 -27.941454 -19.713789 -62.099842 -2.932004 1.693327 43.879959 1.551831 -51.873028 -7.130974 8.749640 -19.577869 107.002472 74.679718 29.027637 33.128448 2.329264 2.226654 51.109215 45.033459 93.251053 -63.039852 9.909309 12.609329 72.747269 1.760333 -4.652676 -9.435621 3.857185 5.804179 -40.711861 -23.270147 -25.835297 100.948891 -3.768892 4.326949 -47.763485 -6.098186 -1.482807 
3.943489 28.756609 3.943488 0.000000 0.000000 0.000000 34.380875 1.886024 -18.192924 -1.025664 -7.533126 7.559112 5.033169 20.408072 -7.008190 10.524219 0.508720 -0.030344 -8.181969 29.705326 -22.936712 -22.670225 -21.096661 -20.421345 -60.661472 -2.904880 1.730735 52.474880 -6.398644 -47.387680 -9.399361 10.762881 -22.531343 121.333214 81.076408 44.942581 27.621643 2.187055 2.287408 42.681896 46.721634 85.745766 -66.394852 9.950846 15.502129 70.525742 1.584875 -4.650393 -3.907395 2.946716 8.993354 -46.481171 -25.083538 -26.417419 102.794922 -3.886209 4.262830 -46.375950 -4.943833 -4.006936 
4.809638 27.201946 4.809638 0.000000 0.000000 0.000000 34.489365 0.459950 -17.317867 -1.137651 -8.267505 7.533678 6.755729 21.207764 -6.441689 10.524219 0.508720 -0.030344 -10.914994 24.606447 -20.937630 -29.487299 -14.565816 -3.530252 -75.338287 -3.097799 1.358593 63.158909 -23.139019 -41.406559 -8.251569 14.296060 -21.847950 94.276360 75.094040 25.216888 39.045582 2.472244 2.141571 43.898758 53.631897 85.341660 -69.339302 10.113836 18.050552 68.469788 1.448377 -4.620692 1.066497 2.273285 11.816007 -51.667259 -26.685904 -26.751102 104.356819 -3.993471 4.229103 -45.079315 -3.996390 -6.281177 
5.609168 25.813869 5.609168 0.000000 0.000000 0.000000 34.237793 -1.166302 -16.046196 -1.441370 -8.883946 7.527699 10.162424 21.402632 -5.304472 10.524219 0.508720 -0.030344 -13.591623 17.378273 -19.083057 -36.387505 -6.529404 13.887347 -91.713226 -3.192320 0.927774 67.320877 -40.386066 -36.146442 -5.963617 20.160583 -21.545979 76.941277 59.348537 18.874241 59.966362 2.892837 1.741457 53.385677 62.871563 91.522591 -71.481621 10.291687 19.851326 66.677330 1.322024 -4.588832 4.996467 1.908767 13.848101 -55.572258 -27.816982 -26.888819 105.353554 -4.052123 4.190222 -44.040161 -3.353285 -7.995283 
6.219918 25.241922 6.219918 0.000000 0.000000 0.000000 33.687675 -2.876639 -14.491226 -1.879612 -9.380016 7.525881 14.329496 20.973904 -3.956288 10.524219 0.508720 -0.030344 -14.132334 14.259745 -17.190802 -38.346825 -5.635853 22.631315 -97.545700 -3.193527 0.763302 59.336250 -50.544598 -28.305483 -4.257203 24.207525 -20.478470 69.201126 44.764481 19.536930 77.508957 3.118190 1.305561 61.397842 68.132965 94.849525 -72.397911 10.349444 20.532396 65.333588 1.215246 -4.557485 7.246053 1.814926 14.680124 -57.457657 -28.198593 -26.953327 105.510063 -4.081152 4.163808 -43.428913 -3.129094 -8.897861 
6.586367 25.203117 6.586367 0.000000 0.000000 0.000000 32.866821 -4.549280 -12.823214 -2.423997 -9.753591 7.533432 18.889257 19.973650 -2.558084 10.524219 0.508720 -0.030344 -14.123254 11.119127 -14.995646 -39.788776 -5.445615 31.028292 -102.145676 -3.188975 0.630789 43.754665 -58.545952 -14.536490 -3.546707 25.000000 -18.370377 66.631149 34.021873 21.808941 88.590164 3.189796 1.003588 57.813759 68.766670 84.962799 -72.349236 10.261543 20.358742 64.290504 1.147400 -4.550098 8.217053 1.892564 14.520362 -57.723362 -27.967093 -26.964903 104.923706 -4.041945 4.191161 -43.138985 -3.279971 -9.159549 
6.858426 25.414045 6.858426 0.000000 0.000000 0.000000 31.850534 -6.066066 -11.154767 -3.026688 -9.982159 7.554036 23.490313 18.537786 -1.280329 10.524219 0.508720 -0.030344 -13.617505 8.064854 -12.523721 -40.880238 -5.554297 38.939426 -105.747017 -3.174079 0.533660 20.574280 -62.507488 5.836404 -3.087533 25.000000 -15.665097 65.418190 23.306829 25.078848 98.569290 3.195110 0.732326 51.081772 67.039581 70.662338 -71.879181 10.095016 19.751312 63.355503 1.079345 -4.526416 8.642737 2.069568 13.906664 -57.293339 -27.439455 -26.920656 103.967239 -3.964359 4.214951 -42.941391 -3.593054 -9.121275 
6.980576 25.919331 6.980576 0.000000 0.000000 0.000000 30.728745 -7.323226 -9.657606 -3.656885 -10.081170 7.566527 27.815634 16.762167 -0.202225 10.524219 0.508720 -0.030344 -12.668992 5.169151 -9.787607 -41.676548 -5.619745 46.108711 -108.587105 -3.159433 0.455329 -3.704071 -61.609440 26.939257 -2.784746 25.000000 -12.511377 64.875107 13.414852 28.704481 107.283234 3.171232 0.490301 45.534103 63.624073 57.261620 -71.036835 9.878517 18.851667 62.487549 1.028937 -4.522549 8.637174 2.363707 12.929148 -56.275810 -26.665590 -26.866510 102.707207 -3.876433 4.264346 -42.826881 -4.054785 -8.892951 
6.941717 26.618916 6.941717 0.000000 0.000000 0.000000 29.570843 -8.222124 -8.490852 -4.275420 -10.028439 7.591263 31.617758 14.802661 0.647152 10.524219 0.508720 -0.030344 -11.353662 2.524247 -6.932749 -42.252396 -5.393830 52.219414 -110.903221 -3.144934 0.388591 -21.996210 -57.653080 42.348328 -2.529817 25.000000 -9.128136 64.538872 5.100545 32.131229 114.537361 3.118713 0.291130 42.523579 59.876629 47.145908 -69.916672 9.645913 17.687092 61.737026 0.980359 -4.512051 8.262373 2.694969 11.680854 -54.812618 -25.710594 -26.766426 101.222588 -3.778661 4.318473 -42.801884 -4.677117 -8.486359 
6.786249 27.429646 6.786249 0.000000 0.000000 0.000000 28.502840 -8.684220 -7.838703 -4.851156 -9.830676 7.607845 34.794170 12.808737 1.311339 10.524219 0.508720 -0.030344 -9.811399 0.203867 -4.179889 -42.606953 -4.662004 56.906166 -112.934090 -3.129733 0.334810 -33.772804 -53.275173 52.218651 -2.232305 24.771605 -5.864600 64.180168 -0.908787 34.785511 120.159569 3.061588 0.139393 41.291367 57.307274 40.719311 -68.593597 9.434008 16.282154 61.075298 0.908741 -4.497864 7.554765 3.097315 10.219151 -52.977184 -24.637030 -26.630850 99.601509 -3.681042 4.365145 -42.862194 -5.342017 -7.931914 
6.447560 28.340151 6.447560 0.000000 0.000000 0.000000 27.612226 -8.631948 -7.872418 -5.323650 -9.484510 7.622398 37.304680 10.922288 1.847754 10.524219 0.508720 -0.030344 -8.206170 -1.257883 -1.794172 -42.869236 -4.577655 58.915867 -113.871460 -3.120964 0.312056 -39.166721 -50.865776 57.136177 -1.807627 23.305464 -3.055010 64.359474 -3.559563 35.738010 122.859489 3.033821 0.077781 40.815357 56.530582 38.075130 -67.082962 9.225509 14.769461 60.481018 0.883274 -4.469621 6.666506 3.584531 8.649821 -50.904373 -23.491482 -26.428761 97.923378 -3.554152 4.399653 -43.005463 -6.092015 -7.315897 
5.914543 29.289606 5.914543 0.000000 0.000000 0.000000 26.842295 -7.819278 -8.891438 -5.727833 -8.840244 7.627059 39.579136 8.913918 2.389268 10.524219 0.508720 -0.030344 -6.468568 -1.888165 0.360244 -43.699207 -5.999726 58.045837 -113.340347 -3.124190 0.325935 -39.897865 -50.879745 58.315590 -1.047442 20.978191 -0.570484 65.041336 -2.966450 35.148422 122.613373 3.033000 0.079012 40.650711 56.774956 38.177170 -65.502693 9.080165 13.192926 59.954712 0.855453 -4.454713 5.633586 4.128303 6.972441 -48.706921 -22.319275 -26.199247 96.244339 -3.446882 4.443521 -43.228264 -6.842672 -6.650714 
5.226062 30.277866 5.226062 0.000000 0.000000 0.000000 26.057789 -6.218966 -10.903945 -6.102634 -7.823029 7.615487 41.466019 6.597137 2.858931 10.524219 0.508720 -0.030344 -4.459856 -2.281727 2.960556 -45.362148 -8.078808 55.793667 -112.218132 -3.135228 0.360395 -38.894070 -51.934055 58.149723 0.039187 18.243414 2.313837 65.483818 -0.416294 33.964214 121.161301 3.052207 0.116731 40.755608 57.400505 39.580643 -63.910156 8.982152 11.615464 59.496738 0.824937 -4.443753 4.536345 4.687131 5.322052 -46.480083 -21.186264 -25.933706 94.663651 -3.329809 4.483869 -43.508194 -7.581619 -5.984489 
4.504263 31.188473 4.504263 0.000000 0.000000 0.000000 25.213747 -4.059222 -13.627873 -6.459083 -6.536513 7.597918 42.933525 4.064314 3.277534 10.524219 0.508720 -0.030344 -2.314612 -2.782424 5.637757 -48.022141 -9.666061 53.918152 -111.368645 -3.141297 0.382396 -38.813805 -52.449253 58.727100 1.440957 15.742688 5.198725 65.155869 2.412149 33.207436 120.201660 3.061082 0.144144 41.153320 57.734524 40.882492 -62.357170 8.953332 10.094584 59.087269 0.787386 -4.447935 3.458976 5.274837 3.740657 -44.325302 -20.145571 -25.692156 93.249352 -3.242117 4.491436 -43.872219 -8.244749 -5.322746 
3.671430 31.932470 3.671430 0.000000 0.000000 0.000000 24.226690 -1.564816 -16.829840 -6.790602 -5.074853 7.574736 43.822643 1.444255 3.663464 10.524219 0.508720 -0.030344 -0.157626 -3.133179 8.164045 -51.791565 -10.276149 53.139927 -110.979172 -3.144603 0.389238 -40.682644 -52.042889 61.162125 3.076475 13.584097 7.862921 64.052513 4.660426 33.297226 120.459183 3.063074 0.141203 41.433220 57.660866 41.197895 -60.937447 8.984725 8.705696 58.736675 0.753204 -4.442694 2.453924 5.805528 2.331107 -42.347885 -19.231695 -25.462538 92.088112 -3.154169 4.529132 -44.322853 -8.840877 -4.773809 
2.799710 32.487705 2.799710 0.000000 0.000000 0.000000 23.116762 1.016883 -20.233742 -7.102677 -3.542530 7.540343 43.986279 -1.156709 4.019931 10.524219 0.508720 -0.030344 1.853586 -3.289534 10.317328 -56.011017 -10.380593 52.644150 -110.567619 -3.146788 0.398594 -42.534004 -51.580883 63.602222 4.880810 11.434115 10.086250 62.737015 6.436232 33.855633 121.244202 3.050738 0.116324 41.361488 57.528854 40.883698 -59.703785 9.061573 7.550395 58.434940 0.747171 -4.414572 1.613992 6.270841 1.115964 -40.641155 -18.501949 -25.309496 91.248932 -3.105536 4.541307 -44.861427 -9.303906 -4.301296 
2.016850 32.881912 2.016850 0.000000 0.000000 0.000000 21.886042 3.483661 -23.584959 -7.393803 -2.044275 7.490014 43.249535 -3.594018 4.457332 10.524219 0.508720 -0.030344 3.764587 -3.761301 11.797666 -59.768856 -10.402671 51.894859 -110.033989 -3.151910 0.412525 -42.792904 -51.517879 63.945988 6.786325 9.407945 11.642343 61.654697 7.576124 34.799068 122.243240 3.039963 0.093692 41.201595 57.361423 40.378807 -58.784256 9.471342 7.109684 59.311531 0.805585 -4.446949 -0.162448 6.153309 0.412150 -39.011986 -17.928001 -25.294954 90.858650 -3.086010 4.542891 -45.749622 -9.533190 -3.930669 
1.256186 33.054039 1.256186 0.000000 0.000000 0.000000 20.625568 5.635994 -26.601091 -7.684635 -0.675828 7.442887 41.438297 -5.748703 5.012572 10.524219 0.508720 -0.030344 5.606287 -4.892214 12.355073 -62.323502 -10.125596 50.765404 -109.751282 -3.150848 0.416785 -42.236549 -51.662926 63.217548 8.691170 7.479866 12.286686 61.214199 7.981447 36.031425 123.096565 3.026469 0.069353 41.198723 57.185268 40.097431 -58.076225 10.143317 7.076553 61.590870 0.960819 -4.517522 -3.169058 5.687651 -0.023972 -37.231918 -17.446045 -25.430767 90.887596 -3.085965 4.553076 -47.106129 -9.621585 -3.513939 
0.462211 33.009617 0.462211 0.000000 0.000000 0.000000 19.105000 7.938607 -30.010250 -7.996675 0.838805 7.384572 36.300766 -7.776313 6.085495 10.524219 0.508720 -0.030344 7.439374 -6.580502 9.717628 -64.787018 -7.141072 49.906498 -109.355331 -3.156686 0.424191 -40.043278 -52.187927 60.337036 11.134629 5.297234 9.743335 61.194992 5.518088 38.602840 123.506310 3.023449 0.058477 41.569782 57.030476 40.466812 -57.491184 10.797820 6.793151 65.244942 1.224178 -4.567903 -7.456885 5.417911 -0.635784 -35.416214 -17.065628 -25.653236 91.258698 -3.105528 4.541517 -48.761917 -9.553029 -3.119106 
